<svg width="32" height="32" viewBox="0 0 32 32" fill="none" xmlns="http://www.w3.org/2000/svg">
<path d="M22.9663 11.8164V8.66489H25V11.8164H22.9663ZM22.3904 16.8681L22.9663 13.2531H25L24.4241 16.8681H22.3904Z" fill="black"/>
<path d="M10.4499 19C10.186 18.552 10.054 18.0422 10.054 17.4706C10.054 17.0689 10.126 16.7136 10.27 16.4046C10.4259 16.0957 10.6419 15.8717 10.9179 15.7326L17.1988 12.4884L10.8999 9.24421C10.6119 9.08972 10.3899 8.87344 10.234 8.59537C10.078 8.30184 10 7.9697 10 7.59893C10 7.05823 10.15 6.52525 10.4499 6L20.0784 11.3529C20.2703 11.4611 20.4203 11.6156 20.5283 11.8164C20.6483 12.0018 20.7083 12.2258 20.7083 12.4884C20.7083 12.751 20.6483 12.9828 20.5283 13.1836C20.4203 13.369 20.2703 13.5157 20.0784 13.6239L10.4499 19Z" fill="black"/>
<path d="M1.11061 23.3656C1.11061 23.0957 1.19567 22.8875 1.36581 22.7408C1.54181 22.5941 1.80581 22.5208 2.15781 22.5208V23.0488C2.08741 23.1309 2.01701 23.2248 1.94661 23.3304L1.99941 23.3656C2.17541 23.1016 2.40127 22.8963 2.67701 22.7496C2.95274 22.5971 3.25781 22.5208 3.59221 22.5208C3.89141 22.5208 4.15541 22.5883 4.38421 22.7232C4.61301 22.8581 4.78901 23.0429 4.91221 23.2776C5.04127 23.5123 5.10581 23.7763 5.10581 24.0696V26.4104C5.10581 26.6451 5.01487 26.8152 4.83301 26.9208C4.65114 27.0264 4.37541 27.0792 4.00581 27.0792V24.228C4.00581 24.0051 3.93834 23.8232 3.80341 23.6824C3.67434 23.5416 3.48367 23.4712 3.23141 23.4712C2.93221 23.4712 2.68581 23.5651 2.49221 23.7528C2.29861 23.9347 2.20181 24.1635 2.20181 24.4392V26.4104C2.20181 26.6451 2.11381 26.8152 1.93781 26.9208C1.76181 27.0264 1.48607 27.0792 1.11061 27.0792V23.3656ZM7.54719 27.0792C7.24799 27.0792 6.97225 27.0205 6.71999 26.9032C6.47359 26.7859 6.27412 26.6187 6.12159 26.4016C5.97492 26.1787 5.90159 25.9147 5.90159 25.6096C5.90159 25.3045 5.98079 25.0405 6.13919 24.8176C6.29759 24.5888 6.51172 24.4157 6.78159 24.2984C7.05732 24.1752 7.35945 24.1136 7.68799 24.1136C7.95785 24.1136 8.19839 24.1576 8.40959 24.2456C8.62665 24.3277 8.82612 24.4539 9.00799 24.624L9.05199 24.58C8.99919 24.5272 8.90825 24.448 8.77919 24.3424V24.1664C8.77919 23.9259 8.69412 23.7352 8.52399 23.5944C8.35385 23.4536 8.11625 23.3832 7.81119 23.3832C7.26559 23.3832 6.86372 23.5827 6.60559 23.9816C6.47652 23.9405 6.36799 23.876 6.27999 23.788C6.19199 23.6941 6.14799 23.5944 6.14799 23.4888C6.14799 23.3128 6.22719 23.1515 6.38559 23.0048C6.54399 22.8581 6.75812 22.7408 7.02799 22.6528C7.29785 22.5648 7.59119 22.5208 7.90799 22.5208C8.52985 22.5208 9.01092 22.6675 9.35119 22.9608C9.69145 23.2483 9.86159 23.6413 9.86159 24.14V26.34C9.86159 26.5981 9.77945 26.7859 9.61519 26.9032C9.45092 27.0205 9.19279 27.0792 8.84079 27.0792V26.7184C8.94052 26.6187 9.00799 26.5453 9.04319 26.4984L9.00799 26.4544C8.81439 26.6597 8.60612 26.8152 8.38319 26.9208C8.16612 27.0264 7.88745 27.0792 7.54719 27.0792ZM7.82879 26.2784C8.13385 26.2784 8.37145 26.2197 8.54159 26.1024C8.71172 25.9851 8.79679 25.8179 8.79679 25.6008C8.79679 25.3896 8.70879 25.2224 8.53279 25.0992C8.36265 24.976 8.13092 24.9144 7.83759 24.9144C7.56772 24.9144 7.35359 24.976 7.19519 25.0992C7.04265 25.2165 6.96639 25.3837 6.96639 25.6008C6.96639 25.8237 7.04265 25.9939 7.19519 26.1112C7.34772 26.2227 7.55892 26.2784 7.82879 26.2784ZM12.5464 27.0792C12.0712 27.0792 11.7192 26.9413 11.4904 26.6656C11.2616 26.3899 11.1472 26.0349 11.1472 25.6008V23.4184H10.2408C10.2408 23.1427 10.2936 22.9373 10.3992 22.8024C10.5048 22.6675 10.6456 22.6 10.8216 22.6H11.1648V21.8696C11.1648 21.6291 11.2528 21.4589 11.4288 21.3592C11.6048 21.2536 11.8717 21.2008 12.2296 21.2008V22.6H13.4C13.4 22.8933 13.3443 23.1045 13.2328 23.2336C13.1213 23.3568 12.9424 23.4184 12.696 23.4184H12.2472V25.5568C12.2472 25.7621 12.2853 25.9088 12.3616 25.9968C12.4437 26.0848 12.5816 26.1288 12.7752 26.1288C12.9805 26.1288 13.1859 26.0731 13.3912 25.9616C13.4499 26.0144 13.4968 26.0819 13.532 26.164C13.5672 26.2403 13.5848 26.3195 13.5848 26.4016C13.5848 26.5776 13.4939 26.736 13.312 26.8768C13.1301 27.0117 12.8749 27.0792 12.5464 27.0792ZM16.0269 27.0792C15.5517 27.0792 15.1997 26.9413 14.9709 26.6656C14.7421 26.3899 14.6277 26.0349 14.6277 25.6008V23.4184H13.7213C13.7213 23.1427 13.7741 22.9373 13.8797 22.8024C13.9853 22.6675 14.1261 22.6 14.3021 22.6H14.6453V21.8696C14.6453 21.6291 14.7333 21.4589 14.9093 21.3592C15.0853 21.2536 15.3522 21.2008 15.7101 21.2008V22.6H16.8805C16.8805 22.8933 16.8247 23.1045 16.7133 23.2336C16.6018 23.3568 16.4229 23.4184 16.1765 23.4184H15.7277V25.5568C15.7277 25.7621 15.7658 25.9088 15.8421 25.9968C15.9242 26.0848 16.0621 26.1288 16.2557 26.1288C16.461 26.1288 16.6663 26.0731 16.8717 25.9616C16.9303 26.0144 16.9773 26.0819 17.0125 26.164C17.0477 26.2403 17.0653 26.3195 17.0653 26.4016C17.0653 26.5776 16.9743 26.736 16.7925 26.8768C16.6106 27.0117 16.3554 27.0792 16.0269 27.0792ZM19.29 27.0792C18.9732 27.0792 18.6886 27.0117 18.4364 26.8768C18.1841 26.7419 17.9846 26.5571 17.838 26.3224C17.6913 26.0819 17.618 25.8061 17.618 25.4952V24.1048C17.618 23.7997 17.6942 23.5269 17.8468 23.2864C17.9993 23.0459 18.2105 22.8581 18.4804 22.7232C18.7561 22.5883 19.0612 22.5208 19.3956 22.5208C19.6126 22.5208 19.8356 22.5677 20.0644 22.6616C20.299 22.7496 20.4956 22.8699 20.654 23.0224L20.6892 22.9784C20.6598 22.9315 20.5953 22.8728 20.4956 22.8024V21.5C20.4956 21.2653 20.5865 21.0835 20.7684 20.9544C20.9561 20.8253 21.2377 20.7608 21.6132 20.7608V26.3224C21.6132 26.5395 21.531 26.7213 21.3668 26.868C21.2025 27.0088 20.9473 27.0792 20.6012 27.0792V26.5952C20.6774 26.5013 20.7332 26.4251 20.7684 26.3664L20.7244 26.3312C20.5425 26.5776 20.3401 26.7653 20.1172 26.8944C19.9001 27.0176 19.6244 27.0792 19.29 27.0792ZM19.6156 26.1288C19.8796 26.1288 20.0937 26.0672 20.258 25.944C20.4281 25.8149 20.5132 25.6536 20.5132 25.46V24.1312C20.5132 23.9435 20.4281 23.788 20.258 23.6648C20.0937 23.5357 19.8766 23.4712 19.6068 23.4712C19.3193 23.4712 19.0964 23.5328 18.938 23.656C18.7854 23.7733 18.7092 23.9435 18.7092 24.1664V25.416C18.7092 25.6507 18.7854 25.8296 18.938 25.9528C19.0964 26.0701 19.3222 26.1288 19.6156 26.1288ZM24.5649 27.0792C24.2012 27.0792 23.8697 27.0088 23.5705 26.868C23.2713 26.7213 23.0337 26.5248 22.8577 26.2784C22.6817 26.0261 22.5937 25.7445 22.5937 25.4336V24.2632C22.5937 23.9347 22.6847 23.6384 22.8665 23.3744C23.0484 23.1104 23.2889 22.9021 23.5881 22.7496C23.8932 22.5971 24.2217 22.5208 24.5737 22.5208C24.9199 22.5208 25.2367 22.5941 25.5241 22.7408C25.8175 22.8816 26.0492 23.0811 26.2193 23.3392C26.3895 23.5915 26.4745 23.8819 26.4745 24.2104V24.7032C26.4745 24.8323 26.4247 24.9408 26.3249 25.0288C26.2311 25.1168 26.1108 25.1608 25.9641 25.1608H23.6585V25.3544C23.6585 25.6067 23.7348 25.812 23.8873 25.9704C24.0399 26.1288 24.2687 26.208 24.5737 26.208C24.8671 26.208 25.0841 26.1435 25.2249 26.0144C25.3716 25.8853 25.4449 25.7181 25.4449 25.5128C25.5505 25.5011 25.6239 25.4952 25.6649 25.4952C25.882 25.4952 26.0521 25.5451 26.1753 25.6448C26.2985 25.7387 26.3601 25.8736 26.3601 26.0496C26.3601 26.2197 26.2809 26.384 26.1225 26.5424C25.9641 26.7008 25.7471 26.8299 25.4713 26.9296C25.1956 27.0293 24.8935 27.0792 24.5649 27.0792ZM25.4801 24.3776V24.2104C25.4801 23.964 25.3951 23.7645 25.2249 23.612C25.0548 23.4595 24.8348 23.3832 24.5649 23.3832C24.2951 23.3832 24.0751 23.4595 23.9049 23.612C23.7407 23.7587 23.6585 23.9581 23.6585 24.2104V24.3776H25.4801ZM28.9062 27.0792C28.7654 27.0792 28.6422 27.0469 28.5366 26.9824C28.4369 26.9179 28.3665 26.8299 28.3254 26.7184L26.7414 22.6088C26.7825 22.5853 26.8529 22.5648 26.9526 22.5472C27.0582 22.5296 27.1433 22.5208 27.2078 22.5208C27.378 22.5208 27.5305 22.556 27.6654 22.6264C27.8062 22.6968 27.9001 22.7995 27.947 22.9344L28.8534 25.68L28.7038 26.0936L28.7742 26.1112L29.8654 22.9344C29.9124 22.7995 30.0033 22.6968 30.1382 22.6264C30.279 22.556 30.4345 22.5208 30.6046 22.5208C30.6692 22.5208 30.7513 22.5296 30.851 22.5472C30.9566 22.5648 31.03 22.5853 31.071 22.6088L29.487 26.7184C29.446 26.8299 29.3726 26.9179 29.267 26.9824C29.1673 27.0469 29.047 27.0792 28.9062 27.0792Z" fill="black"/>
</svg>
