<svg width="32" height="32" viewBox="0 0 32 32" fill="none" xmlns="http://www.w3.org/2000/svg">
<g clip-path="url(#clip0_131_274)">
<rect width="32" height="32" fill="white"/>
<path d="M30.4794 2.04673L29.5172 28.0251L2.5 29.4725V4.45875L30.4794 2.04673Z" stroke="white"/>
<path d="M0 0V32H32V0H0ZM30 26.5L1 30L2 5.5L31 1.5L30 26.5Z" fill="black"/>
<path d="M23.81 11.74C23.03 11.74 22.39 11.5 21.89 11.02C21.39 10.52 21.14 9.88 21.14 9.1C21.14 8.36 21.39 7.73 21.89 7.21C22.41 6.69 23.05 6.43 23.81 6.43C24.57 6.43 25.21 6.69 25.73 7.21C26.27 7.73 26.54 8.36 26.54 9.1C26.54 9.86 26.27 10.49 25.73 10.99C25.21 11.49 24.57 11.74 23.81 11.74ZM21.89 26.14C22.63 25.46 23.19 24.75 23.57 24.01C23.97 23.27 24.17 22.63 24.17 22.09C23.99 22.21 23.74 22.27 23.42 22.27C22.76 22.27 22.21 22.04 21.77 21.58C21.35 21.12 21.14 20.52 21.14 19.78C21.14 19.02 21.39 18.4 21.89 17.92C22.39 17.42 23.04 17.17 23.84 17.17C24.66 17.17 25.32 17.44 25.82 17.98C26.34 18.5 26.6 19.13 26.6 19.87C26.6 22.51 25.73 24.56 23.99 26.02C23.73 26.26 23.32 26.38 22.76 26.38C22.36 26.38 22.07 26.3 21.89 26.14Z" fill="black"/>
<path d="M3.89 22.67C3.45 22.09 3.23 21.43 3.23 20.69C3.23 20.17 3.35 19.71 3.59 19.31C3.85 18.91 4.21 18.62 4.67 18.44L15.14 14.24L4.64 10.04C4.16 9.84 3.79 9.56 3.53 9.2C3.27 8.82 3.14 8.39 3.14 7.91C3.14 7.21 3.39 6.52 3.89 5.84L19.94 12.77C20.26 12.91 20.51 13.11 20.69 13.37C20.89 13.61 20.99 13.9 20.99 14.24C20.99 14.58 20.89 14.88 20.69 15.14C20.51 15.38 20.26 15.57 19.94 15.71L3.89 22.67ZM5.81 51.74C5.03 51.74 4.39 51.5 3.89 51.02C3.39 50.52 3.14 49.88 3.14 49.1C3.14 48.36 3.39 47.73 3.89 47.21C4.41 46.69 5.05 46.43 5.81 46.43C6.57 46.43 7.21 46.69 7.73 47.21C8.27 47.73 8.54 48.36 8.54 49.1C8.54 49.86 8.27 50.49 7.73 50.99C7.21 51.49 6.57 51.74 5.81 51.74ZM3.89 66.14C4.63 65.46 5.19 64.75 5.57 64.01C5.97 63.27 6.17 62.63 6.17 62.09C5.99 62.21 5.74 62.27 5.42 62.27C4.76 62.27 4.21 62.04 3.77 61.58C3.35 61.12 3.14 60.52 3.14 59.78C3.14 59.02 3.39 58.4 3.89 57.92C4.39 57.42 5.04 57.17 5.84 57.17C6.66 57.17 7.32 57.44 7.82 57.98C8.34 58.5 8.6 59.13 8.6 59.87C8.6 62.51 7.73 64.56 5.99 66.02C5.73 66.26 5.32 66.38 4.76 66.38C4.36 66.38 4.07 66.3 3.89 66.14ZM3.89 100.67C3.45 100.09 3.23 99.43 3.23 98.69C3.23 98.17 3.35 97.71 3.59 97.31C3.85 96.91 4.21 96.62 4.67 96.44L15.14 92.24L4.64 88.04C4.16 87.84 3.79 87.56 3.53 87.2C3.27 86.82 3.14 86.39 3.14 85.91C3.14 85.21 3.39 84.52 3.89 83.84L19.94 90.77C20.26 90.91 20.51 91.11 20.69 91.37C20.89 91.61 20.99 91.9 20.99 92.24C20.99 92.58 20.89 92.88 20.69 93.14C20.51 93.38 20.26 93.57 19.94 93.71L3.89 100.67Z" fill="black"/>
</g>
<defs>
<clipPath id="clip0_131_274">
<rect width="32" height="32" fill="white"/>
</clipPath>
</defs>
</svg>
