<svg width="32" height="33" viewBox="0 0 32 33" fill="none" xmlns="http://www.w3.org/2000/svg">
<rect width="32" height="32" transform="translate(0 0.166626)" fill="white"/>
<path d="M29.3333 4.26666C29.3333 3.38266 28.6173 2.66666 27.7333 2.66666H4.26667C3.38267 2.66666 2.66667 3.38266 2.66667 4.26666V20H29.3333V4.26666ZM26.6667 17.3333H5.33333V5.33332H26.6667V17.3333ZM29.3333 21.3333H2.66667C2.404 21.8293 0 27.4427 0 27.9973C0 28.6933 0.557333 29.3333 1.336 29.3333H30.664C31.4427 29.3333 32 28.6933 32 27.9973C32 27.4427 29.596 21.8293 29.3333 21.3333ZM13.028 28L13.6507 26.6667H18.348L18.9707 28H13.028Z" fill="#131313"/>
<path d="M20.0385 9.55316C19.6862 9.55316 19.3971 9.44475 19.1712 9.22791C18.9453 9.00204 18.8324 8.71293 18.8324 8.36058C18.8324 8.02629 18.9453 7.74169 19.1712 7.50679C19.4061 7.27189 19.6952 7.15443 20.0385 7.15443C20.3819 7.15443 20.671 7.27189 20.9059 7.50679C21.1498 7.74169 21.2718 8.02629 21.2718 8.36058C21.2718 8.7039 21.1498 8.98849 20.9059 9.21436C20.671 9.44023 20.3819 9.55316 20.0385 9.55316ZM19.1712 16.0582C19.5055 15.751 19.7585 15.4303 19.9301 15.096C20.1108 14.7617 20.2012 14.4726 20.2012 14.2287C20.1199 14.2829 20.0069 14.31 19.8624 14.31C19.5642 14.31 19.3158 14.2061 19.117 13.9983C18.9273 13.7905 18.8324 13.5194 18.8324 13.1851C18.8324 12.8418 18.9453 12.5617 19.1712 12.3449C19.3971 12.119 19.6907 12.0061 20.0521 12.0061C20.4225 12.0061 20.7207 12.1281 20.9465 12.372C21.1814 12.6069 21.2989 12.8915 21.2989 13.2258C21.2989 14.4184 20.9059 15.3444 20.1199 16.004C20.0024 16.1124 19.8172 16.1666 19.5642 16.1666C19.3835 16.1666 19.2525 16.1305 19.1712 16.0582Z" fill="#131313"/>
<path d="M11.0399 14.4907C10.8411 14.2287 10.7418 13.9305 10.7418 13.5962C10.7418 13.3613 10.796 13.1535 10.9044 12.9728C11.0218 12.7921 11.1845 12.6611 11.3923 12.5798L16.122 10.6825L11.3787 8.78521C11.1619 8.69486 10.9947 8.56837 10.8773 8.40575C10.7598 8.23409 10.7011 8.03984 10.7011 7.82301C10.7011 7.50679 10.814 7.19509 11.0399 6.88791L18.2903 10.0185C18.4349 10.0817 18.5478 10.172 18.6291 10.2895C18.7195 10.3979 18.7646 10.5289 18.7646 10.6825C18.7646 10.8361 18.7195 10.9716 18.6291 11.0891C18.5478 11.1975 18.4349 11.2833 18.2903 11.3466L11.0399 14.4907Z" fill="#131313"/>
</svg>
