<svg width="32" height="32" viewBox="0 0 32 32" fill="none" xmlns="http://www.w3.org/2000/svg">
<path fill-rule="evenodd" clip-rule="evenodd" d="M24.5 8C23.9568 8 23.4189 8.10346 22.9171 8.30448C22.4152 8.5055 21.9592 8.80014 21.5751 9.17157C21.1911 9.54301 20.8864 9.98396 20.6785 10.4693C20.4706 10.9546 20.3636 11.4747 20.3636 12C20.3636 12.5253 20.4706 13.0454 20.6785 13.5307C20.8864 14.016 21.1911 14.457 21.5751 14.8284C21.9592 15.1999 22.4152 15.4945 22.9171 15.6955C23.4189 15.8965 23.9568 16 24.5 16C25.597 16 26.6491 15.5786 27.4248 14.8284C28.2006 14.0783 28.6364 13.0609 28.6364 12C28.6364 10.9391 28.2006 9.92172 27.4248 9.17157C26.6491 8.42143 25.597 8 24.5 8ZM22.7273 17.1429C21.4735 17.1429 20.2711 17.6245 19.3846 18.4818C18.4981 19.3391 18 20.5019 18 21.7143C18 22.3205 18.249 22.9019 18.6923 23.3305C19.1356 23.7592 19.7368 24 20.3636 24H28.6364C29.2632 24 29.8644 23.7592 30.3077 23.3305C30.751 22.9019 31 22.3205 31 21.7143C31 20.5019 30.5019 19.3391 29.6154 18.4818C28.7289 17.6245 27.5265 17.1429 26.2727 17.1429H22.7273Z" fill="#35495E"/>
<path fill-rule="evenodd" clip-rule="evenodd" d="M9.5 8C8.9568 8 8.41893 8.10346 7.91708 8.30448C7.41523 8.5055 6.95925 8.80014 6.57515 9.17157C6.19105 9.54301 5.88637 9.98396 5.6785 10.4693C5.47063 10.9546 5.36364 11.4747 5.36364 12C5.36364 12.5253 5.47063 13.0454 5.6785 13.5307C5.88637 14.016 6.19105 14.457 6.57515 14.8284C6.95925 15.1999 7.41523 15.4945 7.91708 15.6955C8.41893 15.8965 8.9568 16 9.5 16C10.597 16 11.6491 15.5786 12.4248 14.8284C13.2006 14.0783 13.6364 13.0609 13.6364 12C13.6364 10.9391 13.2006 9.92172 12.4248 9.17157C11.6491 8.42143 10.597 8 9.5 8ZM7.72727 17.1429C6.47352 17.1429 5.27112 17.6245 4.38459 18.4818C3.49805 19.3391 3 20.5019 3 21.7143C3 22.3205 3.24903 22.9019 3.69229 23.3305C4.13556 23.7592 4.73676 24 5.36364 24H13.6364C14.2632 24 14.8644 23.7592 15.3077 23.3305C15.751 22.9019 16 22.3205 16 21.7143C16 20.5019 15.5019 19.3391 14.6154 18.4818C13.7289 17.6245 12.5265 17.1429 11.2727 17.1429H7.72727Z" fill="#35495E"/>
<path fill-rule="evenodd" clip-rule="evenodd" d="M16.781 8.02704C16.1682 8.02704 15.5614 8.14775 14.9952 8.38227C14.429 8.61679 13.9145 8.96053 13.4812 9.39387C13.0479 9.82721 12.7041 10.3417 12.4696 10.9079C12.2351 11.474 12.1144 12.0809 12.1144 12.6937C12.1144 13.3065 12.2351 13.9134 12.4696 14.4796C12.7041 15.0457 13.0479 15.5602 13.4812 15.9935C13.9145 16.4269 14.429 16.7706 14.9952 17.0051C15.5614 17.2397 16.1682 17.3604 16.781 17.3604C18.0187 17.3604 19.2057 16.8687 20.0809 15.9935C20.956 15.1184 21.4477 13.9314 21.4477 12.6937C21.4477 11.456 20.956 10.269 20.0809 9.39387C19.2057 8.5187 18.0187 8.02704 16.781 8.02704ZM16.781 17.3604C15.3665 17.3604 12.01 19.2556 11.0098 20.2558C10.0096 21.256 9.44769 22.6126 9.44769 24.027C9.44769 24.7343 9.72864 25.4126 10.2287 25.9127C10.7288 26.4128 11.4071 26.6937 12.1144 26.6937H21.4477C22.1549 26.6937 22.8332 26.4128 23.3333 25.9127C23.8334 25.4126 24.1144 24.7343 24.1144 24.027C24.1144 22.6126 23.5525 21.256 22.5523 20.2558C21.5521 19.2556 18.1955 17.3604 16.781 17.3604Z" fill="#42B883"/>
</svg>
