<svg width="32" height="32" viewBox="0 0 32 32" fill="none" xmlns="http://www.w3.org/2000/svg">
<path d="M9.87766 6.30984L9.87774 6.30984V6.30594C9.87774 5.77657 10.0651 5.32587 10.4425 4.94846C10.8199 4.57105 11.2706 4.38372 11.8 4.38372H25.9555C26.4849 4.38372 26.9356 4.57105 27.313 4.94846C27.6904 5.32587 27.8777 5.77657 27.8777 6.30594V20.4615C27.8777 20.9909 27.6904 21.4416 27.313 21.819C26.9442 22.1878 26.4222 22.3059 25.8777 22.3059H22.4777V20.4837H25.9555H26.0555V20.3837V6.30594V6.20594H25.9555H11.8H11.7L11.7 6.30594L11.7 8.19996H9.80396L9.87766 6.30984Z" fill="#1C4494" stroke="white" stroke-width="0.2"/>
<path d="M10.0889 23.6778H9.98889V23.7778V26.1667H8.32222V23.7778V23.6778H8.22222H5.83333V22.0111H8.22222H8.32222V21.9111V19.5222H9.98889V21.9111V22.0111H10.0889H12.4778V23.6778H10.0889ZM22.0111 27.5111V15.8661H24.3V27.5111C24.3 28.1688 24.067 28.7294 23.5982 29.1982C23.1294 29.667 22.5688 29.9 21.9111 29.9H4.48889C3.83118 29.9 3.27063 29.667 2.80182 29.1982C2.33302 28.7294 2.1 28.1688 2.1 27.5111V10.0889C2.1 9.43118 2.33302 8.87063 2.80182 8.40183C3.27063 7.93302 3.83118 7.70001 4.48889 7.70001H19.6659V9.98889H4.48889H4.38889V10.0889V27.5111V27.6111H4.48889H21.9111H22.0111V27.5111ZM20.5667 23.5667V25.2333H14.5444V23.5667H20.5667ZM20.5667 20.4556V22.1222H14.5444V20.4556H20.5667ZM12.1667 15.2156H6.14444V13.5489H12.1667V15.2156Z" fill="#1C4494" stroke="white" stroke-width="0.2"/>
<path d="M22.3 2C18.0477 2 14.6 5.44768 14.6 9.7C14.6 13.9523 18.0477 17.4 22.3 17.4C26.5523 17.4 30 13.9523 30 9.7C30 5.44768 26.5523 2 22.3 2ZM22.9417 12.8743V13.55H22.3V12.9096C21.6359 12.8981 20.9487 12.7396 20.375 12.4431L20.667 11.3882C21.2804 11.6263 22.0972 11.8791 22.7363 11.7347C23.4736 11.5679 23.6244 10.8094 22.8095 10.4443C22.2121 10.1659 20.3853 9.92779 20.3853 8.36341C20.3853 7.48882 21.052 6.70598 22.3 6.53466V5.85H22.9417V6.50322C23.4062 6.51541 23.9273 6.59626 24.5086 6.77272L24.2763 7.82954C23.7835 7.65629 23.2388 7.49908 22.7087 7.53117C21.7533 7.58699 21.6692 8.4141 22.3359 8.7606C23.4345 9.27714 24.8667 9.66022 24.8667 11.0366C24.868 12.139 24.0049 12.7255 22.9417 12.8743Z" fill="#1C4494"/>
</svg>
