<?xml version="1.0" encoding="UTF-8"?>
<svg version="1.1" xmlns="http://www.w3.org/2000/svg" width="128" height="128">
<path d="M0 0 C42.24 0 84.48 0 128 0 C128 42.24 128 84.48 128 128 C85.76 128 43.52 128 0 128 C0 85.76 0 43.52 0 0 Z " fill="#F9F9F9" transform="translate(0,0)"/>
<path d="M0 0 C3.59459057 1.84051172 5.93790869 3.49444477 8 7 C8.6875 9.75 8.6875 9.75 9 12 C12.47569372 12.99305535 15.5329659 13.48901137 19.0625 12.3125 C19.701875 12.209375 20.34125 12.10625 21 12 C23.09778907 13.57336192 23.90605692 14.52224835 24.41650391 17.1181488 C24.44623291 18.34248375 24.44623291 18.34248375 24.4765625 19.59155273 C24.50669434 20.51939072 24.53682617 21.4472287 24.56787109 22.40318298 C24.58672363 23.40321854 24.60557617 24.40325409 24.625 25.43359375 C24.67454834 26.97781761 24.67454834 26.97781761 24.72509766 28.55323792 C24.8304388 31.84775424 24.91739888 35.14233971 25 38.4375 C25.10878397 42.77020117 25.23613692 47.10176407 25.375 51.43359375 C25.39385254 52.43160507 25.41270508 53.42961639 25.43212891 54.45787048 C25.46226074 55.38886063 25.49239258 56.31985077 25.5234375 57.27905273 C25.5531665 58.50458107 25.5531665 58.50458107 25.58349609 59.75486755 C26.09135082 62.4924196 27.27317824 63.85501201 29 66 C29.55623339 69.24984509 29.32855662 70.52126977 27.453125 73.25390625 C26.36257812 74.39666016 26.36257812 74.39666016 25.25 75.5625 C24.43917969 76.4184375 23.62835938 77.274375 22.79296875 78.15625 C21.87128906 79.0946875 20.94960937 80.033125 20 81 C19.48131348 81.53238281 18.96262695 82.06476563 18.42822266 82.61328125 C7.37304446 93.94376091 7.37304446 93.94376091 3.0640564 94.12025452 C1.80719025 94.11803391 0.5503241 94.11581329 -0.74462891 94.11352539 C-1.78382225 94.11374443 -1.78382225 94.11374443 -2.8440094 94.1139679 C-5.13822541 94.11327018 -7.43236064 94.10548442 -9.7265625 94.09765625 C-11.31554113 94.09579157 -12.90452034 94.0943679 -14.49349976 94.09336853 C-18.67909325 94.08954731 -22.86465213 94.07972039 -27.05023193 94.06866455 C-31.31994153 94.05844194 -35.5896567 94.05386909 -39.859375 94.04882812 C-48.23959923 94.03809778 -56.61979531 94.02102608 -65 94 C-65.08279444 75.82801751 -65.08279444 75.82801751 -64.5625 67.24609375 C-64.49591187 66.05029442 -64.49591187 66.05029442 -64.42797852 64.83033752 C-64.28975047 62.36578189 -64.14505094 59.90166238 -64 57.4375 C-63.9032087 55.73244663 -63.8068526 54.02736851 -63.7109375 52.32226562 C-63.47894654 48.21454254 -63.24116577 44.10719422 -63 40 C-60.03 39.505 -60.03 39.505 -57 39 C-57 39.66 -57 40.32 -57 41 C-56.236875 40.62875 -55.47375 40.2575 -54.6875 39.875 C-53.800625 39.58625 -52.91375 39.2975 -52 39 C-51.01 39.66 -50.02 40.32 -49 41 C-49 40.34 -49 39.68 -49 39 C-47.35 39.33 -45.7 39.66 -44 40 C-42.40901514 36.45796529 -41.72185436 33.57284927 -41.5859375 29.69921875 C-41.54726563 28.72275391 -41.50859375 27.74628906 -41.46875 26.74023438 C-41.4378125 25.73283203 -41.406875 24.72542969 -41.375 23.6875 C-41.33632813 22.66076172 -41.29765625 21.63402344 -41.2578125 20.57617188 C-41.16385103 18.05095735 -41.0781846 15.52574408 -41 13 C-36.36943382 11.97098529 -32.59484024 11.85128994 -28 13 C-24.88742431 13 -22.89234315 12.82638376 -20 12 C-19.79375 10.948125 -19.5875 9.89625 -19.375 8.8125 C-18.35708152 5.42860885 -16.94947492 3.05340346 -14.04296875 0.87890625 C-9.63424509 -1.01777219 -4.66282864 -0.75308134 0 0 Z " fill="#71BF3F" transform="translate(81,16)"/>
<path d="M0 0 C3.59459057 1.84051172 5.93790869 3.49444477 8 7 C8.6875 9.75 8.6875 9.75 9 12 C12.47569372 12.99305535 15.5329659 13.48901137 19.0625 12.3125 C21 12 21 12 22.58911133 13.11889648 C24.5360511 15.71470388 24.43067898 17.55777857 24.51171875 20.78515625 C24.54724854 21.94821289 24.58277832 23.11126953 24.61938477 24.30957031 C24.64186279 25.54803711 24.66434082 26.78650391 24.6875 28.0625 C24.72093506 29.31772461 24.75437012 30.57294922 24.78881836 31.86621094 C25.02841747 41.57713173 25.11563229 51.28688786 25 61 C24.25556641 60.33291016 24.25556641 60.33291016 23.49609375 59.65234375 C20.06687736 56.79574793 17.96867452 55.08497145 13.4375 54.6875 C9.35834986 56.24499369 7.2627396 58.29466013 4.3828125 61.50390625 C3.92648438 61.99761719 3.47015625 62.49132812 3 63 C2.67 63 2.34 63 2 63 C1.98541748 62.37432129 1.97083496 61.74864258 1.95581055 61.10400391 C1.88147196 58.27703598 1.78476766 55.45126792 1.6875 52.625 C1.65366211 51.14773437 1.65366211 51.14773437 1.61914062 49.640625 C1.58369141 48.69960937 1.54824219 47.75859375 1.51171875 46.7890625 C1.48553467 45.91975098 1.45935059 45.05043945 1.43237305 44.15478516 C1.18654782 41.61399973 1.18654782 41.61399973 -2 40 C-3.32 40 -4.64 40 -6 40 C-6.99 39.505 -6.99 39.505 -8 39 C-8 39.66 -8 40.32 -8 41 C-9.98 40.67 -11.96 40.34 -14 40 C-14.0825 38.9275 -14.165 37.855 -14.25 36.75 C-15.06144114 32.69279432 -15.82006408 31.50540406 -19 29 C-21.80107012 27.59946494 -24.18891681 27.7924496 -27.3125 27.75 C-28.44300781 27.72421875 -29.57351562 27.6984375 -30.73828125 27.671875 C-35.27848822 28.12861438 -37.82015072 29.82015072 -41 33 C-41 26.4 -41 19.8 -41 13 C-36.11330995 12.02266199 -32.72460843 11.81884789 -28 13 C-24.88742431 13 -22.89234315 12.82638376 -20 12 C-19.690625 10.4221875 -19.690625 10.4221875 -19.375 8.8125 C-18.35708152 5.42860885 -16.94947492 3.05340346 -14.04296875 0.87890625 C-9.63424509 -1.01777219 -4.66282864 -0.75308134 0 0 Z " fill="#F7A505" transform="translate(81,16)"/>
<path d="M0 0 C18.64253394 -1.08597285 18.64253394 -1.08597285 25.37109375 4.296875 C27 6 27 6 28.44921875 8.14453125 C30.38134384 10.45626782 31.4355268 10.57131989 34.375 10.9375 C38.94094247 11.76902123 41.04072107 13.32332012 44 17 C46.07844468 20.11766701 46.26469214 20.93693584 46.36303711 24.49975586 C46.40834816 25.8614817 46.40834816 25.8614817 46.45457458 27.25071716 C46.47858841 28.22887894 46.50260223 29.20704071 46.52734375 30.21484375 C46.59807775 32.28321099 46.6690486 34.35157014 46.74023438 36.41992188 C46.84129345 39.68307269 46.93774561 42.94627838 47.02905273 46.2097168 C47.1205593 49.35778049 47.22932297 52.50489872 47.33984375 55.65234375 C47.36183334 56.62848129 47.38382294 57.60461884 47.40647888 58.6103363 C47.43983841 59.52130569 47.47319794 60.43227509 47.50756836 61.37084961 C47.54182167 62.56973061 47.54182167 62.56973061 47.57676697 63.79283142 C48.09627115 66.50205591 49.2723301 67.88600622 51 70 C51.6171875 72.1484375 51.6171875 72.1484375 51.875 74.375 C51.97554688 75.10460937 52.07609375 75.83421875 52.1796875 76.5859375 C52 79 52 79 50.53515625 81.65625 C48.13118295 86.89238524 48.56464847 92.14722205 48.56054688 97.83203125 C48.41770512 104.42245423 48.41770512 104.42245423 46.15234375 107.5546875 C41.7633082 110.50195275 37.39522209 110.15436503 32.30932617 110.16113281 C31.42119736 110.16609772 30.53306854 110.17106262 29.61802673 110.17617798 C26.67633289 110.19079734 23.73469297 110.19760137 20.79296875 110.203125 C18.74896747 110.20887681 16.70496621 110.21463454 14.66096497 110.22039795 C10.37285104 110.23090741 6.08475586 110.23675038 1.79663086 110.24023438 C-3.69459367 110.24571778 -9.18557007 110.26974286 -14.6767168 110.29820633 C-18.90008769 110.3168423 -23.12339895 110.32203883 -27.34680748 110.32357025 C-29.37098229 110.32659533 -31.39515609 110.33461897 -33.41929054 110.34775543 C-36.25343247 110.36483516 -39.08696988 110.36293087 -41.92114258 110.35644531 C-42.75512573 110.3656601 -43.58910889 110.37487488 -44.44836426 110.3843689 C-49.35305196 110.34926036 -52.76271957 109.75035256 -57 107 C-57.875 104.8125 -57.875 104.8125 -58 103 C-57.13583513 103.4869347 -57.13583513 103.4869347 -56.25421238 103.98370647 C-53.90940539 105.04084385 -52.47863543 105.25315408 -49.93260193 105.26069641 C-49.13209412 105.26778122 -48.3315863 105.27486603 -47.50682068 105.28216553 C-46.63759476 105.27968811 -45.76836884 105.27721069 -44.87280273 105.2746582 C-43.9504483 105.27976913 -43.02809387 105.28488007 -42.07778931 105.29014587 C-39.0296581 105.30404397 -35.98175287 105.30308529 -32.93359375 105.30078125 C-30.81657324 105.30466732 -28.69955351 105.3090018 -26.58253479 105.31376648 C-22.1465502 105.32122862 -17.71064521 105.32093689 -13.2746582 105.31567383 C-7.58248977 105.30987131 -1.89064589 105.32682922 3.80146885 105.3500185 C8.17227593 105.36472766 12.54300427 105.36563153 16.91383171 105.36250877 C19.0130471 105.36302315 21.11226676 105.36828249 23.21145821 105.37832069 C26.14192144 105.39061668 29.07174476 105.38393522 32.00219727 105.37231445 C33.30907249 105.38378006 33.30907249 105.38378006 34.64234924 105.39547729 C38.99195413 105.50035382 38.99195413 105.50035382 42.72796535 103.60194683 C44.39076153 101.50789139 44.31051457 100.3719453 44.1875 97.7265625 C44.16429688 96.9015625 44.14109375 96.0765625 44.1171875 95.2265625 C44.0394137 93.49998414 43.96129188 91.77342143 43.8828125 90.046875 C43.7414767 85.00589829 43.99975392 82.2388092 47 78 C47.6918752 74.35748056 47.69531432 71.02785595 45.5625 67.875 C45.046875 67.25625 44.53125 66.6375 44 66 C42.82166799 60.84304694 42.77884304 55.66553953 42.640625 50.40234375 C42.57674889 48.53055665 42.51160647 46.6588124 42.4453125 44.78710938 C42.3439586 41.85547238 42.24967514 38.92443539 42.17675781 35.99194336 C42.10342448 33.14837188 41.99966697 30.30724111 41.890625 27.46484375 C41.87582092 26.59077377 41.86101685 25.7167038 41.84576416 24.81614685 C41.64994549 20.40316367 41.40817133 18.52159387 38.60498047 14.93945312 C35.69872187 12.77569321 34.43370893 12.48087824 30.875 12.5625 C28.22265625 12.4296875 28.22265625 12.4296875 26 12 C24.3125 9.1875 24.3125 9.1875 23 6 C16.53760486 0.43933442 8.12973428 1.1951917 0 1 C0 0.67 0 0.34 0 0 Z " fill="#020202" transform="translate(68,10)"/>
<path d="M0 0 C2.60546875 1.86328125 2.60546875 1.86328125 5.1875 4.3125 C6.04730469 5.11300781 6.90710938 5.91351563 7.79296875 6.73828125 C10.18537497 9.18996833 11.84372956 10.95536605 12.359375 14.40234375 C11.88451716 17.83474009 10.63145023 19.06704418 8.25 21.5625 C7.43660156 22.4184375 6.62320313 23.274375 5.78515625 24.15625 C4.40650391 25.56390625 4.40650391 25.56390625 3 27 C1.95661536 28.09335327 0.91365981 29.18711615 -0.12890625 30.28125 C-1.18865751 31.37640174 -2.24983724 32.47017315 -3.3125 33.5625 C-3.81555664 34.087229 -4.31861328 34.61195801 -4.83691406 35.15258789 C-7.39188344 37.729289 -9.28879677 39.63857641 -13 40 C-13.33999574 35.43434298 -13.630412 30.86934609 -13.87109375 26.29736328 C-13.95553713 24.79241589 -14.0514694 23.28805897 -14.16015625 21.78466797 C-15.01045567 9.70878105 -15.01045567 9.70878105 -12.5078125 5.4765625 C-8.76143527 1.66800474 -5.47923535 -0.67400145 0 0 Z " fill="#0A5FBA" transform="translate(98,70)"/>
<path d="M0 0 C3.3 0 6.6 0 10 0 C10.27387491 15.45871738 9.50368393 30.61409119 8 46 C4.7 46 1.4 46 -2 46 C-2.13987981 36.23464067 -1.58963124 26.55427656 -1 16.8125 C-0.90335157 15.17644965 -0.80699522 13.54038202 -0.7109375 11.90429688 C-0.47732207 7.93599083 -0.23976618 3.96793897 0 0 Z " fill="#55902F" transform="translate(21,61)"/>
<path d="M0 0 C1.69576172 -0.03867187 1.69576172 -0.03867187 3.42578125 -0.078125 C7.02827832 0.28428189 8.82169627 1.07909027 11.6875 3.25 C13.92163013 6.60119519 13.92597762 7.6677755 13.8828125 11.57421875 C13.87636719 12.60224609 13.86992188 13.63027344 13.86328125 14.68945312 C13.84652344 15.76130859 13.82976562 16.83316406 13.8125 17.9375 C13.80347656 19.02095703 13.79445313 20.10441406 13.78515625 21.22070312 C13.7615734 23.8973571 13.72866126 26.57356797 13.6875 29.25 C13.0275 29.25 12.3675 29.25 11.6875 29.25 C11.6875 23.64 11.6875 18.03 11.6875 12.25 C10.0375 12.91 8.3875 13.57 6.6875 14.25 C3.6875 14.25 3.6875 14.25 1.6875 13.6875 C-0.50366616 13.02947007 -0.50366616 13.02947007 -3.3125 14.25 C-3.6425 19.2 -3.9725 24.15 -4.3125 29.25 C-5.3025 29.25 -6.2925 29.25 -7.3125 29.25 C-7.6425 24.3 -7.9725 19.35 -8.3125 14.25 C-9.3025 14.25 -10.2925 14.25 -11.3125 14.25 C-11.9725 14.25 -12.6325 14.25 -13.3125 14.25 C-13.92614554 7.00898264 -13.92614554 7.00898264 -10.9375 3.3125 C-7.02861267 0.24123139 -4.9449587 0.06720216 0 0 Z " fill="#5D912E" transform="translate(53.3125,42.75)"/>
<path d="M0 0 C1.03769531 -0.02578125 2.07539062 -0.0515625 3.14453125 -0.078125 C7.4713803 0.38844152 10.04286852 2.14229211 13.125 5.125 C14.1875 7.25 14.1875 7.25 13.6875 9.875 C11.85943589 12.76943484 10.42035484 13.3141736 7.1875 14.25 C7.1875 13.59 7.1875 12.93 7.1875 12.25 C6.424375 12.58 5.66125 12.91 4.875 13.25 C1.86143218 14.37132756 0.10631617 14.57428806 -2.9375 13.5 C-4.8125 12.25 -4.8125 12.25 -5.5625 10.125 C-5.68625 9.196875 -5.68625 9.196875 -5.8125 8.25 C-6.1425 10.23 -6.4725 12.21 -6.8125 14.25 C-8.7925 14.25 -10.7725 14.25 -12.8125 14.25 C-13.41115471 8.26345291 -13.41115471 8.26345291 -11.76953125 5.484375 C-7.94138642 0.85916775 -5.84067781 0.08642187 0 0 Z " fill="#F98437" transform="translate(74.8125,15.75)"/>
<path d="M0 0 C2.3125 1.5 2.3125 1.5 4 3 C3.48809041 7.15430854 2.41428425 9.07739694 -0.5625 11.98828125 C-1.27664062 12.69404297 -1.99078125 13.39980469 -2.7265625 14.12695312 C-3.47679688 14.84818359 -4.22703125 15.56941406 -5 16.3125 C-5.75023438 17.05306641 -6.50046875 17.79363281 -7.2734375 18.55664062 C-12.83218606 24 -12.83218606 24 -14 24 C-15.06953623 9.85835429 -15.06953623 9.85835429 -12.51171875 5.4140625 C-8.65153613 1.62580875 -5.53299372 -0.52695178 0 0 Z " fill="#0E0E9B" transform="translate(98,70)"/>
<path d="M0 0 C0 6.27 0 12.54 0 19 C-6.6 19 -13.2 19 -20 19 C-18.35 17.35 -16.7 15.7 -15 14 C-13.82732731 12.81719657 -12.65537777 11.63367545 -11.484375 10.44921875 C-10.23962179 9.19527432 -8.99482949 7.9413687 -7.75 6.6875 C-7.11320312 6.04232422 -6.47640625 5.39714844 -5.8203125 4.73242188 C-5.21445313 4.12333984 -4.60859375 3.51425781 -3.984375 2.88671875 C-3.43491211 2.33201904 -2.88544922 1.77731934 -2.31933594 1.20581055 C-1 0 -1 0 0 0 Z " fill="#F8A302" transform="translate(107,91)"/>
<path d="M0 0 C0 3 0 3 -1.17749023 4.53393555 C-1.71575439 5.062854 -2.25401855 5.59177246 -2.80859375 6.13671875 C-3.39060547 6.71357422 -3.97261719 7.29042969 -4.57226562 7.88476562 C-5.18779297 8.47966797 -5.80332031 9.07457031 -6.4375 9.6875 C-7.04916016 10.29400391 -7.66082031 10.90050781 -8.29101562 11.52539062 C-12.8461579 16 -12.8461579 16 -14 16 C-14.84003307 9.1597307 -14.84003307 9.1597307 -12.51171875 5.9453125 C-8.34565018 1.78786934 -5.99892423 -0.15786643 0 0 Z " fill="#0A5CB7" transform="translate(98,70)"/>
<path d="M0 0 C3.3 0 6.6 0 10 0 C10 2.97 10 5.94 10 9 C6.7 9.66 3.4 10.32 0 11 C0 7.37 0 3.74 0 0 Z " fill="#F77C28" transform="translate(43,34)"/>
<path d="M0 0 C3.33717549 1.3809002 5.22301036 2.8201238 7 6 C6.6875 8.25 6.6875 8.25 6 10 C4.68 10 3.36 10 2 10 C1.29875 10.20625 0.5975 10.4125 -0.125 10.625 C-0.74375 10.74875 -1.3625 10.8725 -2 11 C-2.66 10.34 -3.32 9.68 -4 9 C-3.79107816 5.72689117 -3.56305786 3.67566943 -1.4375 1.125 C-0.963125 0.75375 -0.48875 0.3825 0 0 Z " fill="#FEF5EC" transform="translate(74,19)"/>
<path d="M0 0 C0.33 0 0.66 0 1 0 C0.88957056 3.22983662 0.75907341 6.45856526 0.625 9.6875 C0.5940625 10.59951172 0.563125 11.51152344 0.53125 12.45117188 C0.32630709 17.14778033 -0.16741532 20.64761139 -2 25 C-2.37837389 27.76357083 -2.50552232 30.52717662 -2.625 33.3125 C-2.66367187 34.05306641 -2.70234375 34.79363281 -2.7421875 35.55664062 C-2.83581705 37.37071309 -2.91896851 39.18532116 -3 41 C-3.33 41 -3.66 41 -4 41 C-4.09547697 32.42829004 -4.10232707 23.87398427 -3.625 15.3125 C-3.55539063 14.05050781 -3.48578125 12.78851563 -3.4140625 11.48828125 C-2.9204003 7.32941011 -1.87124004 3.74248009 0 0 Z " fill="#82C657" transform="translate(20,69)"/>
<path d="M0 0 C1.9375 0.875 1.9375 0.875 3.9375 3.875 C4.0625 6.5625 4.0625 6.5625 3.9375 8.875 C2.6175 8.875 1.2975 8.875 -0.0625 8.875 C-0.784375 9.060625 -1.50625 9.24625 -2.25 9.4375 C-2.848125 9.581875 -3.44625 9.72625 -4.0625 9.875 C-5.0625 8.875 -5.0625 8.875 -5.3125 6 C-5.0625 2.875 -5.0625 2.875 -3.8125 0.9375 C-2.0625 -0.125 -2.0625 -0.125 0 0 Z " fill="#F0A202" transform="translate(54.0625,47.125)"/>
<path d="M0 0 C0 4.95 0 9.9 0 15 C-0.33 15 -0.66 15 -1 15 C-1.33 12.69 -1.66 10.38 -2 8 C-2.77085938 8.51691406 -3.54171875 9.03382812 -4.3359375 9.56640625 C-5.33882812 10.22511719 -6.34171875 10.88382813 -7.375 11.5625 C-8.87160156 12.55443359 -8.87160156 12.55443359 -10.3984375 13.56640625 C-11.25695312 14.03949219 -12.11546875 14.51257813 -13 15 C-13.66 14.67 -14.32 14.34 -15 14 C-12.69152056 11.66265901 -10.37756659 9.33081534 -8.0625 7 C-7.40314453 6.33226563 -6.74378906 5.66453125 -6.06445312 4.9765625 C-5.43603516 4.34492187 -4.80761719 3.71328125 -4.16015625 3.0625 C-3.57886963 2.47597656 -2.99758301 1.88945313 -2.39868164 1.28515625 C-1 0 -1 0 0 0 Z " fill="#F99A47" transform="translate(107,91)"/>
<path d="M0 0 C2 1 2 1 3 2 C2.74711188 3.86323318 2.42309847 5.71708432 2.0625 7.5625 C1.86785156 8.57441406 1.67320313 9.58632813 1.47265625 10.62890625 C1.23869141 11.80259766 1.23869141 11.80259766 1 13 C-0.98 13 -2.96 13 -5 13 C-5.602537 6.97463002 -5.602537 6.97463002 -3.88671875 4.19921875 C-2.65378147 2.74400545 -1.33191067 1.36520843 0 0 Z " fill="#F98636" transform="translate(67,17)"/>
<path d="M0 0 C0.33 0 0.66 0 1 0 C1 7.26 1 14.52 1 22 C0.01 22 -0.98 22 -2 22 C-2.05454409 19.64551325 -2.0939279 17.29232125 -2.125 14.9375 C-2.14820312 13.62652344 -2.17140625 12.31554687 -2.1953125 10.96484375 C-1.99417522 6.88175701 -1.27165462 3.85000947 0 0 Z " fill="#F98024" transform="translate(69,23)"/>
<path d="M0 0 C3.26296197 0.22503186 4.04203745 1.04787598 6.25 3.5625 C7.11625 4.7690625 7.11625 4.7690625 8 6 C6.52307692 10.67692308 6.52307692 10.67692308 3.875 12.3125 C2.946875 12.6528125 2.946875 12.6528125 2 13 C1.814375 11.14375 1.814375 11.14375 1.625 9.25 C1.24253695 6.1237803 0.69450477 3.71120763 -1 1 C-0.67 0.67 -0.34 0.34 0 0 Z " fill="#F9914C" transform="translate(81,17)"/>
<path d="M0 0 C0.66 0.33 1.32 0.66 2 1 C2.33 1.99 2.66 2.98 3 4 C3.66 4.33 4.32 4.66 5 5 C4.01 5.33 3.02 5.66 2 6 C2 11.28 2 16.56 2 22 C1.34 22 0.68 22 0 22 C0 16.39 0 10.78 0 5 C-0.66 4.67 -1.32 4.34 -2 4 C-1.34 4 -0.68 4 0 4 C0 2.68 0 1.36 0 0 Z " fill="#F9832A" transform="translate(87,24)"/>
<path d="M0 0 C3.65316671 1.24976756 4.78065836 1.67098753 7 5 C7 6.32 7 7.64 7 9 C5.35 9.66 3.7 10.32 2 11 C1.77213542 9.01432292 1.54427083 7.02864583 1.31640625 5.04296875 C1.02829265 2.80603607 1.02829265 2.80603607 0 0 Z " fill="#E0A106" transform="translate(58,46)"/>
<path d="M0 0 C0.598125 0.226875 1.19625 0.45375 1.8125 0.6875 C1.4825 2.0075 1.1525 3.3275 0.8125 4.6875 C0.1525 4.6875 -0.5075 4.6875 -1.1875 4.6875 C-1.5175 5.6775 -1.8475 6.6675 -2.1875 7.6875 C-3.5075 7.3575 -4.8275 7.0275 -6.1875 6.6875 C-5.78066505 4.32785727 -5.28935661 2.82815912 -3.875 0.875 C-2.1875 -0.3125 -2.1875 -0.3125 0 0 Z " fill="#E79D0E" transform="translate(105.1875,82.3125)"/>
<path d="M0 0 C2.06183633 -0.08150744 4.12461349 -0.1394194 6.1875 -0.1875 C7.33605469 -0.22230469 8.48460937 -0.25710937 9.66796875 -0.29296875 C13.31898638 0.02804687 15.11466451 0.78372781 18 3 C19.3125 5.6875 19.3125 5.6875 20 8 C19.01 8 18.02 8 17 8 C15.66666667 6.66666667 14.33333333 5.33333333 13 4 C12.01 4 11.02 4 10 4 C10 3.34 10 2.68 10 2 C6.7 1.67 3.4 1.34 0 1 C0 0.67 0 0.34 0 0 Z " fill="#6F9028" transform="translate(47,43)"/>
<path d="M0 0 C0.66 0.33 1.32 0.66 2 1 C1.690625 1.53625 1.38125 2.0725 1.0625 2.625 C-0.17827439 5.3984957 -0.5909675 8.00042837 -1 11 C-2.32 10.67 -3.64 10.34 -5 10 C-4.50769231 3.47692308 -4.50769231 3.47692308 -1.9375 1.0625 C-0.9784375 0.5365625 -0.9784375 0.5365625 0 0 Z " fill="#EB8027" transform="translate(47,46)"/>
<path d="M0 0 C0 2.97 0 5.94 0 9 C-1.32 9 -2.64 9 -4 9 C-4.368 3.48 -4.368 3.48 -2.5625 1.125 C-1 0 -1 0 0 0 Z " fill="#F27E29" transform="translate(53,47)"/>
<path d="M0 0 C0 3.86905083 -1.15035813 4.7158362 -3.6875 7.5625 C-4.37199219 8.34753906 -5.05648437 9.13257812 -5.76171875 9.94140625 C-8.09742935 12.08960779 -10.00384634 13.0292672 -13 14 C-8.88380164 9.08064098 -4.59589638 4.47352044 0 0 Z " fill="#F57C29" transform="translate(105,92)"/>
<path d="M0 0 C2.5 1.6875 2.5 1.6875 5 4 C5.5 6.625 5.5 6.625 5 9 C4.01 9.66 3.02 10.32 2 11 C1.77213542 9.01432292 1.54427083 7.02864583 1.31640625 5.04296875 C1.02829265 2.80603607 1.02829265 2.80603607 0 0 Z " fill="#FDE3D0" transform="translate(81,19)"/>
<path d="M0 0 C0 3.74161103 -0.51338171 7.28953557 -1 11 C-1.99 10.34 -2.98 9.68 -4 9 C-3.38461538 3.46153846 -3.38461538 3.46153846 -1.4375 1.125 C-0.963125 0.75375 -0.48875 0.3825 0 0 Z " fill="#FCDEC9" transform="translate(69,19)"/>
<path d="M0 0 C1.32 0.33 2.64 0.66 4 1 C3.67 2.32 3.34 3.64 3 5 C0.525 4.01 0.525 4.01 -2 3 C-1.34 2.01 -0.68 1.02 0 0 Z " fill="#EE7D2C" transform="translate(103,82)"/>
</svg>
