<svg width="32" height="32" viewBox="0 0 32 32" fill="none" xmlns="http://www.w3.org/2000/svg">
<path fill-rule="evenodd" clip-rule="evenodd" d="M24 2.66667C24.828 2.66667 25.3333 3.36267 25.3333 4V24C25.3333 24.828 24.6373 25.3333 24 25.3333H3.99999C3.35999 25.3333 2.66666 24.828 2.66666 24V4C2.66666 3.35867 3.17332 2.66667 3.99999 2.66667H24ZM7.99999 14.3333C7.99999 14.6067 8.11199 14.8787 8.33199 15.0747L12.2307 18.4133C12.42 18.5827 12.6587 18.6667 12.8947 18.6667C13.1653 18.6667 13.4347 18.5573 13.632 18.3427L20.236 10.9987C20.4107 10.8067 20.4973 10.5667 20.4973 10.328C20.4973 9.78133 20.056 9.33333 19.5 9.33333C19.228 9.33333 18.96 9.44267 18.7613 9.65733L12.824 16.2733L9.66266 13.592C9.47066 13.4213 9.23466 13.3387 8.99732 13.3387C8.44399 13.3387 7.99999 13.7853 7.99999 14.3333Z" fill="#00A5F5"/>
<path d="M26.6667 26.6667H6.33332C5.78132 26.6667 5.33332 27.1147 5.33332 27.6667C5.33332 28.2187 5.78132 28.6667 6.33332 28.6667H27.3333C28.04 28.6667 28.6667 28.04 28.6667 27.3333V6.33333C28.6667 5.78133 28.2187 5.33333 27.6667 5.33333C27.1147 5.33333 26.6667 5.78133 26.6667 6.33333V26.6667Z" fill="#0098E4"/>
</svg>
